<svg version="1" xmlns="http://www.w3.org/2000/svg" width="534.667" height="534.667" viewBox="0 0 401.000000 401.000000"><path d="M184.9.4c-.2.2-3.3.6-6.9 1-3.6.3-7.5.8-8.6 1-1.2.2-3.9.7-6 1-2.2.4-5.7 1.2-7.9 1.8-2.2.6-4.3 1.1-4.7 1-.4-.1-2 .3-3.5.9-1.5.6-3.6 1.2-4.5 1.4-1 .2-4.6 1.4-8 2.5C101.5 22.5 67.5 46.2 46 72.9c-1.9 2.4-4 4.8-4.6 5.5-5.7 6.1-22 34.4-25.9 45.1-1 2.7-2.2 5.5-2.6 6.1-2.2 2.9-9 29.7-11.5 45.4-.9 5.9-1.2 41.2-.4 46.5.4 2.7 1.1 7.2 1.4 10 .4 2.7 1.2 7 1.7 9.5.6 2.5 1.2 5.3 1.4 6.2 4 19.6 18.3 51.3 30.7 68.3 10 13.7 25.3 30.2 36.8 39.8 5.2 4.3 19.4 14.2 26 18.1 7 4.1 26.8 13.6 28.4 13.6.8 0 1.7.4 2 .9.3.4 2 1.2 3.8 1.6 1.8.4 3.5.8 3.8.9.3.1 1.9.7 3.5 1.3 6.4 2.6 24.1 6.4 37 8 11.6 1.5 47.4.7 54.5-1.2.8-.2 3.3-.6 5.4-1 6.1-.9 19.4-4.4 27.1-7.1 3.9-1.4 7.5-2.6 8-2.8 7.9-2.2 33.5-15.8 43-22.8 17.1-12.8 31.2-26.1 41.9-39.8 3.7-4.7 7.1-9.1 7.7-9.8 1.8-2.2 10.3-16.6 12.9-21.7 1.4-2.8 2.8-5.2 3.3-5.3.4-.2.7-.9.7-1.5s1.7-5 3.7-9.7c2-4.6 3.6-9.1 3.6-9.7 0-.7.5-1.3 1-1.3.6 0 .7-.3.4-.6-.3-.4-.2-1.4.3-2.4.5-.9 1.1-2.8 1.4-4.1.3-1.3 1-4.2 1.6-6.4 1.7-6.1 3.8-15.5 4.4-20 .4-2.2 1-6.4 1.5-9.2.9-6.2.7-40.6-.4-47.8-.7-5-2.8-16.2-4-22-.7-3.5-6.2-21.1-7.4-24-.5-1.1-2.3-5-4-8.8-1.6-3.7-2.7-6.7-2.4-6.7.3 0-.1-.8-.9-1.8-.8-.9-1.8-2.6-2.2-3.7-1.1-3-10.8-18.9-11.8-19.3-.4-.2-.8-.8-.8-1.3 0-.9-4.2-6.6-11.3-15.4-6-7.4-24.2-25-32.2-31-11.4-8.6-23-15.7-34.8-21.4-10.4-4.9-20.4-9.1-22.8-9.5-.8-.1-1.8-.4-2.4-.7-2-1.2-21.1-5.9-30.5-7.4-8.1-1.4-46-3.1-47.1-2.1zM208.1 65c3.7 2.2 7.2 4 7.8 4 .6 0 1.1.4 1.1 1 0 .5.4 1 1 1 .5 0 3.9 1.8 7.5 4s6.7 4 6.9 4c.2 0 4.5 2.5 9.5 5.5 5.1 3 9.5 5.5 9.9 5.5.5 0 1.3.5 2 1.2.6.6 4.1 2.8 7.6 4.7 3.6 2 13 7.4 21 12.1l14.6 8.5v26.2c0 14.5-.2 26.3-.4 26.3s-3.3-1.6-6.8-3.6c-3.4-2-8.8-5-11.8-6.7-5.7-3.1-29.1-16.5-39.5-22.5-3.3-1.9-8.2-4.7-11-6.2-2.7-1.5-9.7-5.5-15.4-8.8l-10.5-6-5 3c-2.8 1.6-5.9 3.2-6.8 3.5-1 .3-1.8.9-1.8 1.4 0 .5-.4.9-.9.9s-7.3 3.6-15.1 8-14.6 8-15.1 8-.9.4-.9 1c0 .5-.6 1-1.4 1-.8 0-1.6.6-1.8 1.2-.6 1.8-.4 111.6.2 112.1.5.4 11.6 6.7 27.8 15.8 2 1.2 5.7 3.3 8.2 4.8 2.5 1.4 6.3 3.5 8.4 4.7l3.9 2.1 20.6-12.3c11.3-6.8 21.1-12.7 21.6-13.2 1.1-.9 2-1.2 3.5-1.2 1.8 0 1.1-2.5-1-3.5-1.1-.6-10.5-5.9-20.8-12-10.3-6-19.6-11.5-20.7-12-1.9-1-2-2.1-2-27.8 0-14.7.3-26.7.6-26.7.4 0 4.5 2.2 9.1 4.9 4.5 2.7 11 6.4 14.4 8.2 3.3 1.9 20.5 11.7 38.2 21.8l32.2 18.5v54.5l-2.7 1.4c-1.6.8-8.4 4.7-15.3 8.7-20.3 11.8-31.2 18.1-35.5 20.5-2.2 1.2-7.1 4.1-10.9 6.4-3.7 2.2-7 4.1-7.2 4.1-.2 0-4.3 2.4-9.1 5.3s-10.4 6.1-12.3 7.1l-3.5 1.8-23-13.2c-12.6-7.3-25.4-14.6-28.3-16.2-3-1.7-9.9-5.7-15.4-8.9s-10.1-5.9-10.3-5.9c-.3 0-17.7-10.1-18.5-10.7-.2-.2-.5-37.6-.5-83.1v-82.7l6.5-3.9c3.6-2.1 8.3-4.8 10.5-6.1 13.1-7.4 29.2-16.6 30.5-17.4 2.5-1.6 23.1-13.4 28.2-16.2 2.6-1.4 5.3-3.1 6-3.6.7-.6 3.7-2.3 6.6-3.8 2.9-1.5 5.5-3.1 5.8-3.6.9-1.6 2.6-1 9.5 3.1z"/></svg>